<?xml version="1.0" encoding="UTF-8" standalone="no"?><!DOCTYPE svg PUBLIC "-//W3C//DTD SVG 1.1//EN" "http://www.w3.org/Graphics/SVG/1.1/DTD/svg11.dtd"><svg width="100%" height="100%" viewBox="0 0 482 153" version="1.1" xmlns="http://www.w3.org/2000/svg" xmlns:xlink="http://www.w3.org/1999/xlink" xml:space="preserve" xmlns:serif="http://www.serif.com/" style="fill-rule:evenodd;clip-rule:evenodd;stroke-linejoin:round;stroke-miterlimit:2;"><g><g><path d="M187.036,53.459c-0,-29.505 -23.954,-53.459 -53.459,-53.459l-60.118,0c-29.505,0 -53.459,23.954 -53.459,53.459l0,25.344c0,29.505 23.954,53.459 53.459,53.459l60.118,-0c29.505,-0 53.459,-23.954 53.459,-53.459l-0,-25.344Z" style="fill:#ffb3b3;"/><path d="M177.036,54.401c-0,-24.506 -19.896,-44.401 -44.401,-44.401l-78.234,0c-24.506,0 -44.401,19.895 -44.401,44.401l0,43.46c0,24.506 19.895,44.401 44.401,44.401l78.234,-0c24.505,-0 44.401,-19.895 44.401,-44.401l-0,-43.46Z" style="fill:#ff8080;"/><path d="M167.036,55.731c-0,-19.721 -16.011,-35.731 -35.731,-35.731l-95.574,0c-19.721,0 -35.731,16.01 -35.731,35.731l-0,60.8c-0,19.721 16.01,35.731 35.731,35.731l95.574,-0c19.72,-0 35.731,-16.01 35.731,-35.731l-0,-60.8Z" style="fill:#ff4e4e;"/><path d="M65.111,126.415c-6.266,0 -11.992,-1.026 -17.177,-3.077c-5.184,-2.052 -10.127,-5.203 -14.827,-9.456l5.484,-6.49c4.103,3.73 8.243,6.509 12.421,8.337c4.177,1.827 8.989,2.741 14.435,2.741c5.296,0 9.53,-1.249 12.7,-3.748c3.171,-2.499 4.756,-5.689 4.756,-9.568l0,-0.224c0,-1.79 -0.299,-3.413 -0.897,-4.867c-0.598,-1.455 -1.645,-2.779 -3.141,-3.973c-1.496,-1.193 -3.571,-2.275 -6.225,-3.245c-2.654,-0.97 -6.038,-1.902 -10.152,-2.797c-4.486,-0.97 -8.393,-2.089 -11.721,-3.358c-3.328,-1.268 -6.076,-2.797 -8.245,-4.587c-2.169,-1.791 -3.776,-3.88 -4.823,-6.267c-1.047,-2.387 -1.57,-5.185 -1.57,-8.392l-0,-0.224c-0,-3.059 0.634,-5.894 1.902,-8.505c1.268,-2.611 3.059,-4.867 5.371,-6.77c2.313,-1.902 5.036,-3.394 8.169,-4.476c3.133,-1.081 6.565,-1.622 10.295,-1.622c5.744,-0 10.761,0.802 15.051,2.406c4.289,1.603 8.448,4.009 12.476,7.217l-5.147,6.826c-3.655,-2.984 -7.329,-5.147 -11.022,-6.49c-3.693,-1.343 -7.553,-2.014 -11.582,-2.014c-5.147,-0 -9.213,1.212 -12.197,3.636c-2.984,2.425 -4.476,5.428 -4.476,9.008l-0,0.224c-0,1.865 0.298,3.525 0.895,4.98c0.597,1.455 1.679,2.797 3.245,4.028c1.567,1.231 3.73,2.35 6.49,3.357c2.761,1.007 6.304,1.959 10.631,2.854c8.728,1.939 15.163,4.625 19.303,8.057c4.14,3.431 6.21,8.131 6.21,14.099l0,0.224c0,3.357 -0.663,6.397 -1.988,9.12c-1.326,2.723 -3.154,5.054 -5.484,6.994c-2.329,1.939 -5.135,3.431 -8.418,4.476c-3.282,1.044 -6.863,1.566 -10.742,1.566Zm50.689,-59.531l-11.525,8.169l-3.022,-5.26l12.981,-5.93l-12.981,-6.043l3.022,-5.147l11.525,8.057l-1.119,-13.988l5.819,-0l-1.119,13.988l11.526,-8.057l3.021,5.147l-12.98,6.043l12.98,5.93l-3.021,5.26l-11.526,-8.169l1.119,13.988l-5.819,-0l1.119,-13.988Z" style="fill:#fff;fill-rule:nonzero;"/></g><g><path d="M405.28,53.473l8.692,-0l12.842,35.457l13.275,-35.457l8.475,-0l-18.853,46.743c-3.344,8.245 -8.359,13.39 -15.047,15.437l-3.07,-5.665c5.073,-2.219 8.763,-5.837 11.069,-10.853l-17.383,-45.662Zm-181.584,43.241l-0,-7.351c6.486,2.306 13.491,3.459 21.015,3.459c10.637,-0 15.955,-3.892 15.955,-11.675c0,-6.63 -3.92,-9.945 -11.761,-9.945l-7.956,-0c-12.944,-0 -19.415,-5.622 -19.415,-16.864c-0,-11.819 8.287,-17.729 24.863,-17.729c7.207,-0 13.909,0.865 20.107,2.594l-0,7.351c-6.198,-2.306 -12.9,-3.459 -20.107,-3.459c-11.243,0 -16.864,3.748 -16.864,11.243c0,6.63 3.805,9.945 11.416,9.945l7.956,0c13.174,0 19.761,5.621 19.761,16.864c0,12.107 -7.985,18.161 -23.955,18.161c-7.524,0 -14.529,-0.865 -21.015,-2.594Zm112.995,-59.673l0,61.835l-7.999,-0l-0,-61.835l7.999,0Zm40.378,61.835l-0,-45.403l6.832,-0l0,5.794c3.978,-3.863 8.763,-5.794 14.356,-5.794l-0,6.659c-5.42,-0 -9.816,1.917 -13.188,5.751l-0,32.993l-8,-0Zm-29.187,-52.754l6.745,-0l0,7.351l12.28,-0l0,6.486l-11.026,-0l0,26.074c0,4.238 1.831,6.356 5.492,6.356l5.534,0l0,6.487l-7.61,-0c-7.61,-0 -11.415,-4.079 -11.415,-12.238l-0,-40.516Zm-30.38,7.351l-0,45.403l-6.875,-0l-0,-5.795c-5.506,3.863 -11.041,5.795 -16.605,5.795c-10.435,-0 -15.653,-5.636 -15.653,-16.908l-0,-28.495l7.999,-0l0,28.625c0,6.746 3.344,10.119 10.032,10.119c4.584,-0 8.951,-1.917 13.102,-5.751l0,-32.993l8,-0Zm147.39,-16.432l6.746,0l-1.297,10.032l9.037,-4.367l2.076,6.356l-9.859,1.86l6.875,7.351l-5.319,3.978l-4.886,-8.865l-4.886,8.821l-5.362,-3.848l6.962,-7.394l-9.946,-1.816l2.076,-6.486l9.124,4.453l-1.341,-10.075Z" style="fill:#ff4e4e;fill-rule:nonzero;"/></g></g></svg>