<?xml version="1.0" encoding="UTF-8" standalone="no"?><!DOCTYPE svg PUBLIC "-//W3C//DTD SVG 1.1//EN" "http://www.w3.org/Graphics/SVG/1.1/DTD/svg11.dtd"><svg width="100%" height="100%" viewBox="0 0 457 153" version="1.1" xmlns="http://www.w3.org/2000/svg" xmlns:xlink="http://www.w3.org/1999/xlink" xml:space="preserve" xmlns:serif="http://www.serif.com/" style="fill-rule:evenodd;clip-rule:evenodd;stroke-linejoin:round;stroke-miterlimit:2;"><path d="M187.036,53.459c-0,-29.505 -23.954,-53.459 -53.459,-53.459l-60.118,0c-29.505,0 -53.459,23.954 -53.459,53.459l0,25.344c0,29.505 23.954,53.459 53.459,53.459l60.118,-0c29.505,-0 53.459,-23.954 53.459,-53.459l-0,-25.344Z" style="fill:#d1a8a0;"/><path d="M177.036,54.401c-0,-24.506 -19.896,-44.401 -44.401,-44.401l-78.234,0c-24.506,0 -44.401,19.895 -44.401,44.401l0,43.46c0,24.506 19.895,44.401 44.401,44.401l78.234,-0c24.505,-0 44.401,-19.895 44.401,-44.401l-0,-43.46Z" style="fill:#c0887d;"/><path d="M167.036,55.731c-0,-19.721 -16.011,-35.731 -35.731,-35.731l-95.574,0c-19.721,0 -35.731,16.01 -35.731,35.731l-0,60.8c-0,19.721 16.01,35.731 35.731,35.731l95.574,-0c19.72,-0 35.731,-16.01 35.731,-35.731l-0,-60.8Z" style="fill:#af6759;"/><path d="M65.111,126.415c-6.266,0 -11.992,-1.026 -17.177,-3.077c-5.184,-2.052 -10.127,-5.203 -14.827,-9.456l5.484,-6.49c4.103,3.73 8.243,6.509 12.421,8.337c4.177,1.827 8.989,2.741 14.435,2.741c5.296,0 9.53,-1.249 12.7,-3.748c3.171,-2.499 4.756,-5.689 4.756,-9.568l0,-0.224c0,-1.79 -0.299,-3.413 -0.897,-4.867c-0.598,-1.455 -1.645,-2.779 -3.141,-3.973c-1.496,-1.193 -3.571,-2.275 -6.225,-3.245c-2.654,-0.97 -6.038,-1.902 -10.152,-2.797c-4.486,-0.97 -8.393,-2.089 -11.721,-3.358c-3.328,-1.268 -6.076,-2.797 -8.245,-4.587c-2.169,-1.791 -3.776,-3.88 -4.823,-6.267c-1.047,-2.387 -1.57,-5.185 -1.57,-8.392l-0,-0.224c-0,-3.059 0.634,-5.894 1.902,-8.505c1.268,-2.611 3.059,-4.867 5.371,-6.77c2.313,-1.902 5.036,-3.394 8.169,-4.476c3.133,-1.081 6.565,-1.622 10.295,-1.622c5.744,-0 10.761,0.802 15.051,2.406c4.289,1.603 8.448,4.009 12.476,7.217l-5.147,6.826c-3.655,-2.984 -7.329,-5.147 -11.022,-6.49c-3.693,-1.343 -7.553,-2.014 -11.582,-2.014c-5.147,-0 -9.213,1.212 -12.197,3.636c-2.984,2.425 -4.476,5.428 -4.476,9.008l-0,0.224c-0,1.865 0.298,3.525 0.895,4.98c0.597,1.455 1.679,2.797 3.245,4.028c1.567,1.231 3.73,2.35 6.49,3.357c2.761,1.007 6.304,1.959 10.631,2.854c8.728,1.939 15.163,4.625 19.303,8.057c4.14,3.431 6.21,8.131 6.21,14.099l0,0.224c0,3.357 -0.663,6.397 -1.988,9.12c-1.326,2.723 -3.154,5.054 -5.484,6.994c-2.329,1.939 -5.135,3.431 -8.418,4.476c-3.282,1.044 -6.863,1.566 -10.742,1.566Zm50.689,-59.531l-11.525,8.169l-3.022,-5.26l12.981,-5.93l-12.981,-6.043l3.022,-5.147l11.525,8.057l-1.119,-13.988l5.819,-0l-1.119,13.988l11.526,-8.057l3.021,5.147l-12.98,6.043l12.98,5.93l-3.021,5.26l-11.526,-8.169l1.119,13.988l-5.819,-0l1.119,-13.988Z" style="fill:#fff;fill-rule:nonzero;"/><path d="M387.481,35.516l7.849,0l11.599,32.023l11.989,-32.023l7.654,0l-17.027,42.215c-3.02,7.446 -7.55,12.094 -13.59,13.942l-2.773,-5.116c4.582,-2.004 7.915,-5.272 9.998,-9.802l-15.699,-41.239Zm-163.995,39.052l0,-6.639c5.858,2.083 12.184,3.125 18.979,3.125c9.607,-0 14.411,-3.515 14.411,-10.544c-0,-5.988 -3.541,-8.982 -10.622,-8.982l-7.186,-0c-11.69,-0 -17.534,-5.077 -17.534,-15.231c-0,-10.674 7.485,-16.011 22.455,-16.011c6.508,0 12.561,0.781 18.159,2.343l-0,6.639c-5.598,-2.083 -11.651,-3.124 -18.159,-3.124c-10.154,-0 -15.231,3.384 -15.231,10.153c0,5.988 3.437,8.982 10.31,8.982l7.186,0c11.897,0 17.846,5.077 17.846,15.231c0,10.934 -7.211,16.401 -21.635,16.401c-6.795,0 -13.121,-0.781 -18.979,-2.343Zm102.05,-53.891l0,55.844l-7.225,-0l0,-55.844l7.225,-0Zm36.466,55.844l0,-41.005l6.17,0l0,5.233c3.593,-3.488 7.915,-5.233 12.966,-5.233l-0,6.014c-4.895,0 -8.865,1.732 -11.911,5.194l-0,29.797l-7.225,-0Zm-26.36,-47.644l6.092,0l0,6.639l11.091,0l-0,5.858l-9.958,0l-0,23.548c-0,3.828 1.653,5.741 4.959,5.741l4.999,0l-0,5.858l-6.873,-0c-6.873,-0 -10.31,-3.684 -10.31,-11.052l0,-36.592Zm-27.437,6.639l0,41.005l-6.209,-0l0,-5.233c-4.973,3.489 -9.971,5.233 -14.996,5.233c-9.424,-0 -14.137,-5.09 -14.137,-15.269l0,-25.736l7.225,0l-0,25.853c-0,6.092 3.02,9.138 9.06,9.138c4.139,-0 8.084,-1.731 11.833,-5.194l-0,-29.797l7.224,0Zm133.113,-14.839l6.092,-0l-1.171,9.06l8.162,-3.945l1.874,5.741l-8.904,1.679l6.209,6.639l-4.803,3.593l-4.413,-8.006l-4.413,7.967l-4.842,-3.476l6.287,-6.678l-8.982,-1.64l1.875,-5.858l8.24,4.023l-1.211,-9.099Z" style="fill:#533e32;fill-rule:nonzero;"/><g><path d="M231.062,109.779c-1.784,0 -3.415,-0.292 -4.892,-0.876c-1.477,-0.584 -2.884,-1.482 -4.223,-2.693l1.562,-1.849c1.169,1.063 2.348,1.854 3.538,2.375c1.189,0.52 2.56,0.781 4.111,0.781c1.509,-0 2.714,-0.356 3.617,-1.068c0.903,-0.712 1.355,-1.62 1.355,-2.725l-0,-0.064c-0,-0.51 -0.085,-0.972 -0.256,-1.386c-0.17,-0.414 -0.468,-0.792 -0.894,-1.132c-0.426,-0.34 -1.017,-0.648 -1.773,-0.924c-0.756,-0.276 -1.72,-0.542 -2.892,-0.797c-1.277,-0.276 -2.39,-0.595 -3.338,-0.956c-0.948,-0.361 -1.731,-0.797 -2.348,-1.306c-0.618,-0.51 -1.076,-1.105 -1.374,-1.785c-0.298,-0.68 -0.447,-1.477 -0.447,-2.391l-0,-0.063c-0,-0.871 0.18,-1.679 0.542,-2.422c0.361,-0.744 0.871,-1.387 1.529,-1.929c0.659,-0.541 1.435,-0.966 2.327,-1.275c0.892,-0.308 1.87,-0.462 2.932,-0.462c1.636,0 3.065,0.229 4.287,0.686c1.221,0.456 2.406,1.142 3.553,2.055l-1.466,1.944c-1.041,-0.849 -2.087,-1.466 -3.139,-1.848c-1.052,-0.383 -2.151,-0.574 -3.299,-0.574c-1.466,0 -2.624,0.345 -3.474,1.036c-0.849,0.691 -1.274,1.546 -1.274,2.566l-0,0.063c-0,0.532 0.085,1.004 0.255,1.419c0.17,0.414 0.478,0.796 0.924,1.147c0.446,0.351 1.062,0.669 1.848,0.956c0.786,0.287 1.796,0.558 3.028,0.813c2.486,0.552 4.319,1.317 5.498,2.295c1.179,0.977 1.769,2.315 1.769,4.015l-0,0.064c-0,0.956 -0.189,1.822 -0.567,2.597c-0.377,0.776 -0.898,1.44 -1.561,1.992c-0.664,0.553 -1.463,0.978 -2.398,1.275c-0.935,0.298 -1.955,0.446 -3.06,0.446Z" style="fill:#af6759;fill-rule:nonzero;"/><path d="M255.444,100.218c-0.064,-0.739 -0.223,-1.442 -0.478,-2.107c-0.255,-0.666 -0.601,-1.252 -1.036,-1.759c-0.436,-0.507 -0.967,-0.908 -1.594,-1.204c-0.627,-0.296 -1.344,-0.444 -2.151,-0.444c-0.701,0 -1.36,0.138 -1.976,0.412c-0.616,0.275 -1.158,0.66 -1.625,1.157c-0.468,0.496 -0.856,1.083 -1.164,1.759c-0.308,0.676 -0.504,1.405 -0.589,2.186l10.613,0Zm-10.613,2.008c0.085,0.871 0.297,1.647 0.637,2.327c0.34,0.68 0.776,1.253 1.307,1.721c0.531,0.467 1.126,0.823 1.785,1.067c0.658,0.245 1.349,0.367 2.071,0.367c1.147,-0 2.13,-0.213 2.948,-0.638c0.818,-0.425 1.567,-0.988 2.247,-1.689l1.53,1.371c-0.829,0.935 -1.774,1.684 -2.837,2.247c-1.062,0.563 -2.379,0.844 -3.952,0.844c-1.126,0 -2.188,-0.207 -3.187,-0.621c-0.998,-0.415 -1.869,-0.999 -2.613,-1.753c-0.744,-0.754 -1.333,-1.663 -1.769,-2.725c-0.436,-1.063 -0.653,-2.231 -0.653,-3.506c-0,-1.19 0.196,-2.311 0.589,-3.362c0.393,-1.052 0.94,-1.966 1.642,-2.741c0.701,-0.776 1.535,-1.387 2.502,-1.833c0.966,-0.446 2.023,-0.669 3.171,-0.669c1.211,-0 2.294,0.228 3.251,0.685c0.956,0.457 1.763,1.078 2.422,1.865c0.658,0.786 1.158,1.71 1.498,2.772c0.34,1.063 0.51,2.199 0.51,3.411l-0,0.366c-0,0.138 -0.011,0.303 -0.032,0.494l-13.067,0Z" style="fill:#af6759;fill-rule:nonzero;"/><path d="M262.232,92.983l2.454,0l0,2.869c0.553,-0.893 1.275,-1.652 2.167,-2.279c0.893,-0.627 2.051,-0.94 3.474,-0.94c0.999,-0 1.886,0.159 2.662,0.478c0.775,0.319 1.434,0.77 1.976,1.354c0.541,0.585 0.956,1.281 1.243,2.088c0.286,0.807 0.43,1.7 0.43,2.677l-0,10.231l-2.454,-0l-0,-9.604c-0,-1.527 -0.393,-2.735 -1.179,-3.626c-0.787,-0.89 -1.913,-1.335 -3.379,-1.335c-0.701,-0 -1.354,0.122 -1.96,0.365c-0.605,0.244 -1.131,0.594 -1.577,1.05c-0.447,0.456 -0.792,1.002 -1.036,1.638c-0.245,0.636 -0.367,1.335 -0.367,2.098l0,9.414l-2.454,-0l0,-16.478Z" style="fill:#af6759;fill-rule:nonzero;"/><path d="M287.315,109.779c-1.19,0 -2.391,-0.217 -3.602,-0.653c-1.211,-0.435 -2.284,-1.025 -3.219,-1.769l1.243,-1.753c0.893,0.68 1.822,1.201 2.789,1.562c0.967,0.361 1.939,0.542 2.916,0.542c0.999,-0 1.817,-0.234 2.454,-0.701c0.638,-0.468 0.956,-1.105 0.956,-1.913l0,-0.063c0,-0.404 -0.111,-0.755 -0.334,-1.052c-0.223,-0.298 -0.526,-0.558 -0.909,-0.781c-0.382,-0.223 -0.823,-0.42 -1.322,-0.59c-0.5,-0.169 -1.015,-0.329 -1.546,-0.478c-0.637,-0.191 -1.28,-0.398 -1.928,-0.621c-0.648,-0.223 -1.233,-0.505 -1.753,-0.845c-0.521,-0.34 -0.946,-0.765 -1.275,-1.274c-0.329,-0.51 -0.494,-1.148 -0.494,-1.913l-0,-0.063c-0,-0.702 0.138,-1.344 0.414,-1.929c0.277,-0.584 0.664,-1.083 1.164,-1.498c0.499,-0.414 1.094,-0.733 1.784,-0.956c0.691,-0.223 1.44,-0.334 2.247,-0.334c1.02,-0 2.051,0.164 3.092,0.494c1.041,0.329 1.986,0.77 2.836,1.322l-1.115,1.849c-0.765,-0.489 -1.567,-0.877 -2.406,-1.164c-0.84,-0.286 -1.663,-0.43 -2.47,-0.43c-0.978,0 -1.753,0.229 -2.327,0.685c-0.574,0.457 -0.861,1.026 -0.861,1.706l0,0.063c0,0.383 0.117,0.717 0.351,1.004c0.234,0.287 0.547,0.537 0.94,0.749c0.393,0.213 0.845,0.404 1.355,0.574c0.51,0.17 1.041,0.34 1.593,0.51c0.638,0.191 1.27,0.404 1.897,0.637c0.626,0.234 1.195,0.531 1.705,0.893c0.51,0.361 0.919,0.796 1.227,1.306c0.308,0.51 0.462,1.137 0.462,1.881l-0,0.063c-0,0.787 -0.154,1.482 -0.462,2.088c-0.308,0.606 -0.723,1.121 -1.243,1.546c-0.521,0.425 -1.137,0.749 -1.849,0.972c-0.712,0.223 -1.482,0.334 -2.31,0.334Z" style="fill:#af6759;fill-rule:nonzero;"/><path d="M303.141,107.803c0.762,0 1.472,-0.105 2.128,-0.317c0.657,-0.211 1.234,-0.513 1.731,-0.904c0.498,-0.391 0.89,-0.856 1.176,-1.395c0.285,-0.54 0.428,-1.137 0.428,-1.792l0,-1.523c-0.614,-0.169 -1.313,-0.328 -2.096,-0.476c-0.784,-0.148 -1.684,-0.222 -2.7,-0.222c-1.525,0 -2.706,0.302 -3.542,0.904c-0.837,0.603 -1.255,1.401 -1.255,2.395l0,0.064c0,0.507 0.111,0.967 0.334,1.379c0.222,0.412 0.524,0.756 0.905,1.031c0.381,0.275 0.821,0.486 1.318,0.634c0.498,0.148 1.022,0.222 1.573,0.222Zm-0.496,2.008c-0.765,0 -1.52,-0.106 -2.263,-0.318c-0.744,-0.213 -1.403,-0.537 -1.976,-0.972c-0.574,-0.436 -1.036,-0.973 -1.387,-1.61c-0.35,-0.637 -0.526,-1.381 -0.526,-2.231l0,-0.064c0,-0.892 0.17,-1.673 0.51,-2.342c0.34,-0.669 0.824,-1.227 1.45,-1.673c0.627,-0.447 1.371,-0.787 2.231,-1.02c0.861,-0.234 1.812,-0.351 2.853,-0.351c1.062,0 1.981,0.064 2.757,0.191c0.775,0.128 1.535,0.298 2.279,0.51l-0,-0.506c-0,-1.457 -0.425,-2.56 -1.275,-3.309c-0.85,-0.75 -2.051,-1.125 -3.602,-1.125c-0.977,0 -1.864,0.107 -2.661,0.319c-0.797,0.213 -1.578,0.499 -2.342,0.861l-0.734,-2.02c0.914,-0.431 1.838,-0.776 2.773,-1.035c0.935,-0.258 2.008,-0.388 3.219,-0.388c2.337,0 4.112,0.606 5.323,1.817c1.147,1.147 1.721,2.762 1.721,4.845l-0,10.071l-2.422,-0l-0,-2.454c-0.574,0.743 -1.344,1.397 -2.311,1.96c-0.967,0.563 -2.173,0.844 -3.617,0.844Z" style="fill:#af6759;fill-rule:nonzero;"/><path d="M321.703,109.748c-0.658,-0 -1.274,-0.085 -1.848,-0.255c-0.574,-0.17 -1.068,-0.441 -1.482,-0.813c-0.414,-0.372 -0.739,-0.855 -0.972,-1.45c-0.234,-0.595 -0.351,-1.307 -0.351,-2.136l0,-9.943l-2.295,-0l0,-2.168l2.295,0l0,-4.971l2.454,-0l0,4.971l5.227,0l0,2.168l-5.227,-0l0,9.6c0,1.017 0.255,1.727 0.765,2.13c0.51,0.402 1.179,0.604 2.008,0.604c0.425,-0 0.823,-0.04 1.195,-0.121c0.372,-0.08 0.77,-0.221 1.195,-0.421l0,2.103c-0.425,0.234 -0.876,0.409 -1.354,0.526c-0.478,0.117 -1.015,0.176 -1.61,0.176Z" style="fill:#af6759;fill-rule:nonzero;"/><path d="M329.289,92.983l2.454,0l-0,16.478l-2.454,-0l-0,-16.478Zm-0.16,-6.31l2.805,0l-0,2.709l-2.805,0l0,-2.709Z" style="fill:#af6759;fill-rule:nonzero;"/><path d="M345.033,107.644c0.892,0 1.71,-0.17 2.454,-0.51c0.744,-0.34 1.381,-0.797 1.912,-1.37c0.531,-0.574 0.946,-1.243 1.243,-2.008c0.298,-0.765 0.446,-1.583 0.446,-2.454l0,-0.064c0,-0.892 -0.154,-1.726 -0.462,-2.502c-0.308,-0.775 -0.738,-1.455 -1.291,-2.04c-0.552,-0.584 -1.2,-1.046 -1.944,-1.386c-0.743,-0.34 -1.551,-0.51 -2.422,-0.51c-0.892,0 -1.71,0.17 -2.454,0.51c-0.744,0.34 -1.376,0.797 -1.896,1.37c-0.521,0.574 -0.93,1.249 -1.227,2.024c-0.298,0.776 -0.446,1.599 -0.446,2.47l-0,0.064c-0,0.892 0.154,1.726 0.462,2.502c0.308,0.775 0.733,1.45 1.275,2.024c0.541,0.573 1.184,1.03 1.928,1.37c0.743,0.34 1.551,0.51 2.422,0.51Zm-0.064,2.199c-1.232,0 -2.369,-0.228 -3.41,-0.685c-1.041,-0.457 -1.944,-1.073 -2.709,-1.849c-0.765,-0.775 -1.36,-1.678 -1.785,-2.709c-0.425,-1.03 -0.637,-2.13 -0.637,-3.298l-0,-0.064c-0,-1.169 0.212,-2.273 0.637,-3.315c0.425,-1.041 1.02,-1.954 1.785,-2.74c0.765,-0.787 1.673,-1.408 2.725,-1.865c1.052,-0.457 2.204,-0.685 3.458,-0.685c1.232,-0 2.374,0.228 3.426,0.685c1.052,0.457 1.96,1.073 2.725,1.849c0.765,0.775 1.36,1.678 1.785,2.709c0.425,1.03 0.637,2.13 0.637,3.298l0,0.064c0,1.169 -0.218,2.273 -0.653,3.315c-0.436,1.041 -1.036,1.954 -1.801,2.741c-0.765,0.786 -1.678,1.407 -2.741,1.864c-1.062,0.457 -2.21,0.685 -3.442,0.685Z" style="fill:#af6759;fill-rule:nonzero;"/><path d="M358.036,92.983l2.454,0l0,2.869c0.553,-0.893 1.275,-1.652 2.168,-2.279c0.892,-0.627 2.05,-0.94 3.473,-0.94c0.999,-0 1.886,0.159 2.662,0.478c0.775,0.319 1.434,0.77 1.976,1.354c0.541,0.585 0.956,1.281 1.243,2.088c0.286,0.807 0.43,1.7 0.43,2.677l-0,10.231l-2.454,-0l-0,-9.604c-0,-1.527 -0.393,-2.735 -1.179,-3.626c-0.787,-0.89 -1.913,-1.335 -3.379,-1.335c-0.701,-0 -1.354,0.122 -1.96,0.365c-0.605,0.244 -1.131,0.594 -1.577,1.05c-0.447,0.456 -0.792,1.002 -1.036,1.638c-0.245,0.636 -0.367,1.335 -0.367,2.098l0,9.414l-2.454,-0l0,-16.478Z" style="fill:#af6759;fill-rule:nonzero;"/><path d="M383.119,109.779c-1.19,0 -2.391,-0.217 -3.602,-0.653c-1.211,-0.435 -2.284,-1.025 -3.219,-1.769l1.243,-1.753c0.893,0.68 1.822,1.201 2.789,1.562c0.967,0.361 1.939,0.542 2.916,0.542c0.999,-0 1.817,-0.234 2.454,-0.701c0.638,-0.468 0.956,-1.105 0.956,-1.913l0,-0.063c0,-0.404 -0.111,-0.755 -0.334,-1.052c-0.223,-0.298 -0.526,-0.558 -0.909,-0.781c-0.382,-0.223 -0.823,-0.42 -1.322,-0.59c-0.5,-0.169 -1.015,-0.329 -1.546,-0.478c-0.637,-0.191 -1.28,-0.398 -1.928,-0.621c-0.648,-0.223 -1.233,-0.505 -1.753,-0.845c-0.521,-0.34 -0.946,-0.765 -1.275,-1.274c-0.329,-0.51 -0.494,-1.148 -0.494,-1.913l0,-0.063c0,-0.702 0.138,-1.344 0.414,-1.929c0.277,-0.584 0.664,-1.083 1.164,-1.498c0.499,-0.414 1.094,-0.733 1.784,-0.956c0.691,-0.223 1.44,-0.334 2.247,-0.334c1.02,-0 2.051,0.164 3.092,0.494c1.041,0.329 1.986,0.77 2.836,1.322l-1.115,1.849c-0.765,-0.489 -1.567,-0.877 -2.406,-1.164c-0.84,-0.286 -1.663,-0.43 -2.47,-0.43c-0.978,0 -1.753,0.229 -2.327,0.685c-0.574,0.457 -0.86,1.026 -0.86,1.706l-0,0.063c-0,0.383 0.116,0.717 0.35,1.004c0.234,0.287 0.547,0.537 0.94,0.749c0.393,0.213 0.845,0.404 1.355,0.574c0.51,0.17 1.041,0.34 1.593,0.51c0.638,0.191 1.27,0.404 1.897,0.637c0.626,0.234 1.195,0.531 1.705,0.893c0.51,0.361 0.919,0.796 1.227,1.306c0.308,0.51 0.462,1.137 0.462,1.881l-0,0.063c-0,0.787 -0.154,1.482 -0.462,2.088c-0.308,0.606 -0.723,1.121 -1.243,1.546c-0.521,0.425 -1.137,0.749 -1.849,0.972c-0.711,0.223 -1.482,0.334 -2.31,0.334Z" style="fill:#af6759;fill-rule:nonzero;"/></g></svg>