<?xml version="1.0" encoding="UTF-8" standalone="no"?><!DOCTYPE svg PUBLIC "-//W3C//DTD SVG 1.1//EN" "http://www.w3.org/Graphics/SVG/1.1/DTD/svg11.dtd"><svg width="100%" height="100%" viewBox="0 0 241 241" version="1.1" xmlns="http://www.w3.org/2000/svg" xmlns:xlink="http://www.w3.org/1999/xlink" xml:space="preserve" xmlns:serif="http://www.serif.com/" style="fill-rule:evenodd;clip-rule:evenodd;stroke-linejoin:round;stroke-miterlimit:2;"><path d="M138.12,24.472c-0,-2.588 -1.389,-4.977 -3.637,-6.258c-4.943,-2.816 -13.992,-7.971 -21.204,-12.08c-2.23,-1.27 -4.966,-1.258 -7.185,0.031c-2.218,1.289 -3.583,3.661 -3.583,6.227l0,208.421c0,2.895 1.733,5.508 4.4,6.635c5.26,2.222 14.228,6.01 21.204,8.957c2.224,0.939 4.771,0.702 6.783,-0.632c2.012,-1.335 3.222,-3.588 3.222,-6.003c-0,-40.169 -0,-179.342 -0,-205.298Z" style="fill:#8b0976;"/><path d="M183.656,46.215c1.294,-2.242 1.286,-5.005 -0.021,-7.238c-2.872,-4.91 -8.131,-13.899 -12.323,-21.064c-1.296,-2.214 -3.671,-3.573 -6.237,-3.565c-2.566,0.007 -4.934,1.379 -6.217,3.601c-21.225,36.764 -90.457,156.676 -104.21,180.498c-1.448,2.507 -1.253,5.637 0.493,7.945c3.444,4.555 9.316,12.319 13.884,18.36c1.457,1.925 3.781,2.993 6.191,2.843c2.409,-0.149 4.584,-1.496 5.791,-3.587c20.085,-34.787 89.671,-155.315 102.649,-177.793Z" style="fill:#f72100;"/><path d="M212.221,87.813c2.241,-1.294 3.616,-3.691 3.601,-6.279c-0.033,-5.689 -0.093,-16.103 -0.141,-24.403c-0.015,-2.566 -1.393,-4.93 -3.619,-6.206c-2.226,-1.277 -4.962,-1.273 -7.184,0.01c-36.764,21.225 -156.676,90.457 -180.498,104.21c-2.507,1.448 -3.904,4.255 -3.546,7.128c0.706,5.666 1.909,15.327 2.845,22.842c0.298,2.395 1.777,4.482 3.939,5.558c2.162,1.075 4.718,0.996 6.809,-0.211c34.788,-20.085 155.315,-89.671 177.794,-102.649Z" style="fill:#8b0976;"/><path d="M216.159,138.12c2.588,-0 4.977,-1.389 6.258,-3.637c2.816,-4.943 7.971,-13.992 12.08,-21.204c1.27,-2.23 1.258,-4.966 -0.031,-7.185c-1.289,-2.218 -3.661,-3.583 -6.227,-3.583l-208.421,0c-2.895,0 -5.508,1.733 -6.635,4.4c-2.222,5.26 -6.01,14.228 -8.957,21.204c-0.939,2.224 -0.702,4.771 0.632,6.783c1.335,2.012 3.589,3.222 6.003,3.222c40.169,-0 179.342,-0 205.298,-0Z" style="fill:#f72100;"/><path d="M194.416,183.656c2.242,1.294 5.005,1.286 7.238,-0.021c4.91,-2.872 13.899,-8.131 21.064,-12.323c2.215,-1.296 3.573,-3.671 3.565,-6.237c-0.007,-2.566 -1.379,-4.934 -3.601,-6.217c-36.764,-21.225 -156.676,-90.457 -180.498,-104.21c-2.507,-1.448 -5.637,-1.253 -7.945,0.493c-4.555,3.444 -12.319,9.316 -18.359,13.884c-1.926,1.457 -2.994,3.781 -2.844,6.191c0.149,2.409 1.496,4.584 3.587,5.791c34.788,20.085 155.315,89.671 177.793,102.649Z" style="fill:#8b0976;"/><path d="M152.818,212.221c1.294,2.241 3.691,3.616 6.279,3.601c5.689,-0.033 16.103,-0.093 24.403,-0.141c2.566,-0.015 4.93,-1.393 6.207,-3.619c1.276,-2.226 1.272,-4.962 -0.011,-7.184c-21.225,-36.764 -90.457,-156.676 -104.21,-180.498c-1.448,-2.507 -4.255,-3.904 -7.128,-3.546c-5.666,0.706 -15.326,1.909 -22.842,2.845c-2.395,0.298 -4.482,1.777 -5.558,3.939c-1.075,2.162 -0.996,4.718 0.211,6.809c20.085,34.788 89.671,155.315 102.649,177.794Z" style="fill:#f72100;"/></svg>