<?xml version="1.0" encoding="UTF-8" standalone="no"?><!DOCTYPE svg PUBLIC "-//W3C//DTD SVG 1.1//EN" "http://www.w3.org/Graphics/SVG/1.1/DTD/svg11.dtd"><svg width="100%" height="100%" viewBox="0 0 195 160" version="1.1" xmlns="http://www.w3.org/2000/svg" xmlns:xlink="http://www.w3.org/1999/xlink" xml:space="preserve" xmlns:serif="http://www.serif.com/" style="fill-rule:evenodd;clip-rule:evenodd;stroke-linejoin:round;stroke-miterlimit:2;"><path d="M191.742,44.991c-0.963,-24.666 -21.772,-43.91 -46.438,-42.946l-102.324,3.998c-24.666,0.963 -43.909,21.771 -42.945,46.438l2.438,62.414c0.964,24.666 21.772,43.909 46.438,42.945l102.324,-3.997c24.666,-0.964 43.909,-21.772 42.946,-46.438l-2.439,-62.414Z" style="fill:#af6759;"/><path d="M191.46,66.251c4.091,-22.247 -10.648,-43.629 -32.894,-47.721l-97.044,-17.848c-22.246,-4.091 -43.629,10.648 -47.721,32.894l-11.045,60.059c-4.092,22.246 10.648,43.629 32.894,47.72l97.043,17.848c22.247,4.092 43.63,-10.648 47.721,-32.894l11.046,-60.058Z" style="fill:#d1a8a0;"/><g><path d="M180.626,49.542c-0,-19.72 -16.011,-35.73 -35.731,-35.73l-95.575,-0c-19.72,-0 -35.73,16.01 -35.73,35.73l-0,60.801c-0,19.72 16.01,35.731 35.73,35.731l95.575,-0c19.72,-0 35.731,-16.011 35.731,-35.731l-0,-60.801Z" style="fill:#ff4e4e;"/><path d="M78.701,120.227c-6.267,-0 -11.992,-1.026 -17.177,-3.077c-5.185,-2.052 -10.127,-5.204 -14.827,-9.456l5.483,-6.49c4.103,3.73 8.244,6.509 12.421,8.336c4.178,1.828 8.99,2.742 14.436,2.742c5.296,-0 9.53,-1.25 12.7,-3.749c3.171,-2.499 4.756,-5.688 4.756,-9.567l0,-0.224c0,-1.79 -0.299,-3.413 -0.897,-4.868c-0.598,-1.454 -1.645,-2.779 -3.141,-3.972c-1.496,-1.194 -3.571,-2.276 -6.225,-3.245c-2.654,-0.97 -6.038,-1.903 -10.152,-2.798c-4.486,-0.97 -8.393,-2.089 -11.721,-3.357c-3.328,-1.268 -6.076,-2.797 -8.245,-4.588c-2.169,-1.79 -3.777,-3.879 -4.823,-6.266c-1.047,-2.387 -1.57,-5.185 -1.57,-8.393l-0,-0.224c-0,-3.058 0.634,-5.893 1.902,-8.504c1.268,-2.611 3.059,-4.868 5.371,-6.77c2.313,-1.902 5.036,-3.394 8.169,-4.476c3.133,-1.082 6.565,-1.623 10.295,-1.623c5.744,0 10.761,0.802 15.05,2.406c4.29,1.604 8.449,4.01 12.477,7.218l-5.147,6.826c-3.655,-2.984 -7.33,-5.148 -11.022,-6.49c-3.693,-1.343 -7.554,-2.015 -11.582,-2.015c-5.147,0 -9.213,1.213 -12.197,3.637c-2.984,2.425 -4.476,5.427 -4.476,9.008l-0,0.224c-0,1.865 0.298,3.525 0.895,4.979c0.597,1.455 1.679,2.798 3.245,4.029c1.567,1.231 3.73,2.35 6.49,3.357c2.761,1.007 6.304,1.958 10.631,2.853c8.728,1.94 15.162,4.626 19.303,8.057c4.14,3.432 6.21,8.132 6.21,14.1l0,0.224c0,3.357 -0.663,6.397 -1.989,9.119c-1.325,2.723 -3.153,5.055 -5.483,6.994c-2.329,1.94 -5.135,3.432 -8.418,4.476c-3.282,1.045 -6.863,1.567 -10.742,1.567Zm50.689,-59.531l-11.526,8.168l-3.021,-5.259l12.981,-5.931l-12.981,-6.042l3.021,-5.148l11.526,8.057l-1.119,-13.987l5.819,-0l-1.119,13.987l11.526,-8.057l3.021,5.148l-12.98,6.042l12.98,5.931l-3.021,5.259l-11.526,-8.168l1.119,13.987l-5.819,0l1.119,-13.987Z" style="fill:#fff;fill-rule:nonzero;"/></g></svg>