<?xml version="1.0" encoding="UTF-8" standalone="no"?><!DOCTYPE svg PUBLIC "-//W3C//DTD SVG 1.1//EN" "http://www.w3.org/Graphics/SVG/1.1/DTD/svg11.dtd"><svg width="100%" height="100%" viewBox="0 0 84 41" version="1.1" xmlns="http://www.w3.org/2000/svg" xmlns:xlink="http://www.w3.org/1999/xlink" xml:space="preserve" xmlns:serif="http://www.serif.com/" style="fill-rule:evenodd;clip-rule:evenodd;stroke-linejoin:round;stroke-miterlimit:2;"><g><g><path d="M56.568,29.405c-2.549,-0 -4.627,-0.83 -6.233,-2.49c-1.606,-1.659 -2.408,-3.822 -2.408,-6.487c-0,-2.814 0.815,-5.091 2.446,-6.829c1.63,-1.738 3.791,-2.607 6.481,-2.607c2.541,-0 4.596,0.832 6.164,2.495c1.569,1.664 2.353,3.858 2.353,6.581c0,2.798 -0.813,5.053 -2.44,6.767c-1.626,1.713 -3.747,2.57 -6.363,2.57Zm0.174,-14.962c-1.407,0 -2.525,0.528 -3.352,1.583c-0.828,1.056 -1.242,2.453 -1.242,4.191c0,1.763 0.414,3.158 1.242,4.184c0.827,1.027 1.912,1.54 3.253,1.54c1.382,-0 2.479,-0.499 3.29,-1.496c0.811,-0.998 1.217,-2.382 1.217,-4.154c-0,-1.845 -0.393,-3.282 -1.18,-4.308c-0.786,-1.026 -1.862,-1.54 -3.228,-1.54Z" style="fill:#1f2937;fill-rule:nonzero;"/><path d="M83.126,29.094l-5.065,0c-0,0 -5.447,-8.211 -5.662,-8.716l-0.062,0l-0,8.716l-4.011,0l0,-17.804l4.011,-0l-0,8.418l0.062,-0c0.099,-0.232 5.413,-8.418 5.413,-8.418l4.78,-0l-6.208,8.492l6.742,9.312Z" style="fill:#1f2937;fill-rule:nonzero;"/><path d="M41.019,21.64l0,7.454l-3.887,0l0,-7.454l-7.371,-10.35l4.612,-0l4.729,7.019l4.864,-7.019l4.408,-0l-7.355,10.35Z" style="fill:#1f2937;fill-rule:nonzero;"/></g></g><g><path d="M11.978,21.988l-11.978,-10.993l0,6.503l11.978,10.993l11.978,-10.993l0,-6.503l-11.978,10.993Z" style="fill:#1f2937;"/><path d="M11.978,6.503l-11.978,10.993l0,-6.503l11.978,-10.993l11.978,10.993l0,6.503l-11.978,-10.993Z" style="fill:#0d79f2;"/><path d="M11.978,33.894l-11.978,-10.993l0,6.504l11.978,10.993l11.978,-10.993l0,-6.504l-11.978,10.993Z" style="fill:#0d79f2;"/></g></svg>