<?xml version="1.0" encoding="UTF-8" standalone="no"?>
<!DOCTYPE svg PUBLIC "-//W3C//DTD SVG 1.1//EN" "http://www.w3.org/Graphics/SVG/1.1/DTD/svg11.dtd">
<svg width="100%" height="100%" viewBox="0 0 420 626" version="1.1" xmlns="http://www.w3.org/2000/svg" xmlns:xlink="http://www.w3.org/1999/xlink" xml:space="preserve" xmlns:serif="http://www.serif.com/" style="fill-rule:evenodd;clip-rule:evenodd;stroke-linejoin:round;stroke-miterlimit:1.5;">
    <g transform="matrix(1,0,0,1,-470,0)">
        <g id="Artboard2" transform="matrix(1,0,0,0.7208,0,0)">
            <rect x="470" y="0" width="420" height="867.968" style="fill:none;"/>
            <clipPath id="_clip1">
                <rect x="470" y="0" width="420" height="867.968"/>
            </clipPath>
            <g clip-path="url(#_clip1)">
                <g transform="matrix(2.05893,0,0,3.05706,462.798,-11.86)">
                    <path d="M178.413,8.615L180.508,8.721C190.84,9.77 198.903,18.496 198.903,29.105L198.903,287.79L9.42,287.79L9.42,29.105C9.42,17.789 18.594,8.615 29.91,8.615L62.519,8.615L62.519,12.917C62.519,18.48 61.851,22.991 67.414,22.991L140.909,22.991L142.939,22.786C147.529,21.847 147.904,17.891 147.904,13.023L147.904,8.721L178.413,8.615Z" style="fill:white;"/>
                </g>
                <g transform="matrix(2.0161,0,0,3.01297,-52.1699,0)">
                    <path d="M259,28.173C259,12.614 271.614,0 287.173,0L439.149,0C454.709,0 467.323,12.614 467.323,28.173L467.323,288.077L259,288.077L259,28.173ZM437.413,8.615L439.508,8.721C449.84,9.77 457.903,18.496 457.903,29.105L457.903,288.077L457.903,279.02L268.42,279.02L268.42,29.105C268.42,17.789 277.594,8.615 288.91,8.615L316.341,8.615L316.341,12.917C316.341,18.48 320.851,22.991 326.414,22.991L399.909,22.991L401.939,22.786C406.529,21.847 409.982,17.785 409.982,12.917L409.982,8.615L437.413,8.615Z" style="fill:rgb(200,205,205);"/>
                </g>
                <g transform="matrix(2.00918,0,0,2.78743,-49.781,0)">
                    <path d="M328.676,10.382L328.698,10.382C330.554,10.394 332.057,11.905 332.057,13.764C332.057,15.622 330.554,17.133 328.698,17.145L328.676,17.145C326.81,17.145 325.295,15.63 325.295,13.764C325.295,11.897 326.81,10.382 328.676,10.382Z" style="fill:rgb(105,105,105);"/>
                </g>
                <g transform="matrix(2.00918,0,0,2.78743,-49.781,0)">
                    <path d="M344.536,10.382L344.557,10.382C346.414,10.394 347.917,11.905 347.917,13.764C347.917,15.622 346.414,17.133 344.557,17.145L344.536,17.145C342.669,17.145 341.154,15.63 341.154,13.764C341.154,11.897 342.669,10.382 344.536,10.382Z" style="fill:rgb(105,105,105);"/>
                </g>
                <g transform="matrix(2.00918,0,0,2.78743,-49.781,0)">
                    <path d="M381.995,10.382L382.017,10.382C383.873,10.394 385.376,11.905 385.376,13.764C385.376,15.622 383.873,17.133 382.017,17.145L381.995,17.145C380.129,17.145 378.614,15.63 378.614,13.764C378.614,11.897 380.129,10.382 381.995,10.382Z" style="fill:rgb(105,105,105);"/>
                </g>
                <g transform="matrix(2.00918,0,0,2.78743,-49.781,0)">
                    <path d="M397.647,10.382L397.669,10.382C399.525,10.394 401.028,11.905 401.028,13.764C401.028,15.622 399.525,17.133 397.669,17.145L397.647,17.145C395.781,17.145 394.266,15.63 394.266,13.764C394.266,11.897 395.781,10.382 397.647,10.382Z" style="fill:rgb(105,105,105);"/>
                </g>
                <g transform="matrix(2.00918,0,0,2.78743,-49.781,0)">
                    <path d="M372.377,15.522C373.289,15.516 374.027,14.774 374.027,13.861C374.027,12.945 373.283,12.201 372.366,12.201L354.162,12.201C353.246,12.201 352.502,12.945 352.502,13.861C352.502,14.778 353.246,15.522 354.162,15.522L372.377,15.522Z" style="fill:rgb(105,105,105);"/>
                </g>
                <g transform="matrix(2.03933,0,0,2.82926,534.709,603.321)">
                    <text x="-5.174px" y="0px" style="font-family:'Arial-BoldMT', 'Arial', sans-serif;font-weight:700;font-size:62.335px;fill:rgb(200,205,205);">Hello</text>
                </g>
                <g transform="matrix(1,0,0,1.38735,2.27374e-13,2.66489)">
                    <path d="M533.467,475.801L830.416,475.801" style="fill:none;stroke:rgb(200,205,205);stroke-width:4px;"/>
                </g>
                <g transform="matrix(0.948876,0,0,1.38735,27.273,39.2938)">
                    <path d="M533.467,475.801L830.416,475.801" style="fill:none;stroke:rgb(200,205,205);stroke-width:4.1px;"/>
                </g>
                <g transform="matrix(0.791058,0,0,1.38735,111.464,75.9227)">
                    <path d="M533.467,475.801L830.416,475.801" style="fill:none;stroke:rgb(200,205,205);stroke-width:4.44px;"/>
                </g>
            </g>
        </g>
    </g>
</svg>
