<?xml version="1.0" encoding="UTF-8" standalone="no"?>
<!DOCTYPE svg PUBLIC "-//W3C//DTD SVG 1.1//EN" "http://www.w3.org/Graphics/SVG/1.1/DTD/svg11.dtd">
<svg width="100%" height="100%" viewBox="0 0 180 55" version="1.1" xmlns="http://www.w3.org/2000/svg" xmlns:xlink="http://www.w3.org/1999/xlink" xml:space="preserve" xmlns:serif="http://www.serif.com/" style="fill-rule:evenodd;clip-rule:evenodd;stroke-linejoin:round;stroke-miterlimit:2;">
    <g transform="matrix(1,0,0,1,-629.919,-2394.19)">
        <g transform="matrix(1.79129,0,0,1.79129,-3896.64,-1509.95)">
            <text x="2569.11px" y="2196.07px" style="font-family:'Calibri-Bold', 'Calibri', sans-serif;font-weight:700;font-size:25.754px;fill:rgb(24,56,89);">YO<tspan x="2600.95px " y="2196.07px ">K</tspan></text>
        </g>
        <g transform="matrix(0.777755,0,0,0.777755,-1265.1,736.044)">
            <text x="2533.09px" y="2196.07px" style="font-family:'AvenirNextLTPro-Bold', 'Avenir Next LT Pro', sans-serif;font-weight:700;font-size:25.754px;fill:rgb(13,121,242);">C<tspan x="2550.71px " y="2196.07px ">o</tspan>nsulting</text>
        </g>
        <g transform="matrix(-3.14622e-17,0.765752,1,2.81537e-16,-403.479,1728.4)">
            <path d="M869.457,1059.85L940.846,1059.85L940.846,1074.69L905.152,1099.78L869.457,1074.69L869.457,1059.85Z" style="fill:rgb(24,56,89);"/>
        </g>
        <g transform="matrix(-1.41215e-17,0.664421,0.679068,1.98035e-16,-58.0612,2220.96)">
            <path d="M301.374,1013.12L260.724,1052.08L260.724,1013.12L301.374,1013.12Z" style="fill:rgb(0,193,95);"/>
        </g>
        <g transform="matrix(-1.41215e-17,-0.664421,0.679068,-1.98035e-16,-58.0612,2622.08)">
            <path d="M301.374,1013.12L260.724,1052.08L260.724,1013.12L301.374,1013.12Z" style="fill:rgb(13,121,242);"/>
        </g>
    </g>
</svg>
